<svg xmlns="http://www.w3.org/2000/svg" style="display:none">
  <symbol id="icon-sun" viewBox="0 0 24 24">
    <path fill="currentColor" d="M12 18a6 6 0 1 1 0-12a6 6 0 0 1 0 12Zm0-2a4 4 0 1 0 0-8a4 4 0 0 0 0 8ZM11 1h2v3h-2V1Zm0 20h2v3h-2v-3ZM1 11h3v2H1v-2Zm20 0h3v2h-3v-2ZM4.22 5.64l1.42-1.42l2.12 2.12L6.34 7.76L4.22 5.64Zm14.02 14.02l1.42-1.42l2.12 2.12l-1.42 1.42l-2.12-2.12ZM18.36 4.22l2.12-2.12l1.42 1.42l-2.12 2.12l-1.42-1.42ZM2.1 20.48l2.12-2.12l1.42 1.42l-2.12 2.12L2.1 20.48Z"/>
  </symbol>

  <symbol id="icon-moon" viewBox="0 0 24 24">
    <path fill="currentColor" d="M10.5 2a9.5 9.5 0 0 0 0 19c4.7 0 8.6-3.4 9.4-7.9a7.5 7.5 0 0 1-9.4-9.4Z"/>
  </symbol>

  <symbol id="icon-user" viewBox="0 0 24 24">
    <path fill="currentColor" d="M12 12a5 5 0 1 0-5-5a5 5 0 0 0 5 5Zm0 2c-5 0-9 3-9 6v2h18v-2c0-3-4-6-9-6Z"/>
  </symbol>

  <symbol id="icon-logout" viewBox="0 0 24 24">
    <path fill="currentColor" d="M10 17v-2h4v-2h-4v-2l-3 3l3 3Zm-6 4V3h8v2H6v14h6v2H4Zm12-16h2v3h-2V5Zm0 11h2v3h-2v-3Zm2-9h2v10h-2V7Z"/>
  </symbol>

  <symbol id="icon-search" viewBox="0 0 24 24">
    <path fill="currentColor" d="M10 2a8 8 0 1 0 5.3 14l4.7 4.7l1.4-1.4l-4.7-4.7A8 8 0 0 0 10 2Zm0 2a6 6 0 1 1 0 12a6 6 0 0 1 0-12Z"/>
  </symbol>
</svg>

